<svg width="15" height="16" viewBox="0 0 15 16" fill="none" xmlns="http://www.w3.org/2000/svg">
<path d="M8.9375 9.5H0.8125V7.78125H8.9375C9.6875 7.78125 10.3073 7.65104 10.7969 7.39062C11.2865 7.125 11.651 6.76562 11.8906 6.3125C12.1302 5.85417 12.25 5.33333 12.25 4.75C12.25 4.16667 12.1302 3.64844 11.8906 3.19531C11.651 2.73698 11.2865 2.3776 10.7969 2.11719C10.3073 1.85156 9.6875 1.71875 8.9375 1.71875H5.28125V16H3.34375V-4.76837e-07H8.9375C10.125 -4.76837e-07 11.1042 0.216145 11.875 0.648437C12.6458 1.08073 13.2188 1.65625 13.5938 2.375C13.9688 3.09375 14.1563 3.88542 14.1563 4.75C14.1563 5.61458 13.9688 6.40625 13.5938 7.125C13.2188 7.84375 12.6458 8.41927 11.875 8.85156C11.1042 9.28385 10.125 9.5 8.9375 9.5ZM8.8125 11V12.7187H0.8125V11H8.8125Z" fill="white"/>
</svg>
